<svg xmlns="http://www.w3.org/2000/svg" width="48.163" height="48.162" viewBox="0 0 48.163 48.162"><defs><style>.a{fill:#a4cb45;}</style></defs><g transform="translate(0)"><path class="a" d="M162.334,191.455a.941.941,0,1,0-1.33,0A.94.94,0,0,0,162.334,191.455Zm0,0" transform="translate(-145.609 -171.99)"/><path class="a" d="M230.395,174.665a2.822,2.822,0,1,0-3.991,0A2.825,2.825,0,0,0,230.395,174.665ZM227.734,172a.941.941,0,1,1,0,1.33A.941.941,0,0,1,227.734,172Zm0,0" transform="translate(-204.357 -153.87)"/><path class="a" d="M226.4,283.8a2.822,2.822,0,1,0,3.991,0A2.821,2.821,0,0,0,226.4,283.8Zm2.661,2.661a.941.941,0,1,1,0-1.331A.941.941,0,0,1,229.065,286.463Zm0,0" transform="translate(-204.357 -256.356)"/><path class="a" d="M174.888,236.055a.94.94,0,0,0,1.107.738l13.3-2.661a.941.941,0,0,0-.369-1.845l-13.3,2.661A.94.94,0,0,0,174.888,236.055Zm0,0" transform="translate(-158.42 -210.42)"/><path class="a" d="M78.753,56.574a.94.94,0,0,0-.665.275l-9.876,9.876a.941.941,0,0,0,1.33,1.331l9.211-9.211L90.725,70.818,69.607,91.936,57.634,79.963l6.587-6.587a.941.941,0,0,0-1.331-1.33L55.639,79.3a.94.94,0,0,0,0,1.33l13.3,13.3a.94.94,0,0,0,1.33,0L92.72,71.483a.941.941,0,0,0,0-1.331l-13.3-13.3A.94.94,0,0,0,78.753,56.574Zm0,0" transform="translate(-50.156 -51.252)"/><path class="a" d="M46.556.276,42.518,4.313a6.648,6.648,0,0,0-7.945-.073L31.267.837l-.01-.01a2.82,2.82,0,0,0-3.992,0L.827,27.381a2.821,2.821,0,0,0,0,3.992L4.558,35.1a6.683,6.683,0,0,0,8.5,8.5l3.731,3.731a2.821,2.821,0,0,0,3.99,0L47.335,20.9a2.82,2.82,0,0,0,0-3.99l-.01-.01-3.4-3.306a6.634,6.634,0,0,0-.074-7.945l4.037-4.037A.941.941,0,0,0,46.556.276ZM41.967,12.981a.94.94,0,0,0,.01,1.34l4.032,3.918a.939.939,0,0,1,0,1.324L19.451,46a.942.942,0,0,1-1.331,0l-4.172-4.172a.941.941,0,0,0-1.064-.187,4.8,4.8,0,0,1-6.368-6.368.941.941,0,0,0-.186-1.065L2.157,30.042a.943.943,0,0,1,0-1.332L28.6,2.157a.94.94,0,0,1,1.326,0l3.918,4.032a.94.94,0,0,0,1.34.01,4.735,4.735,0,0,1,5.989-.533l-1.38,1.38A2.82,2.82,0,1,0,41.122,8.37L42.5,6.991A4.728,4.728,0,0,1,41.967,12.981ZM39.239,8.922a.941.941,0,1,1-1.331,0A.941.941,0,0,1,39.239,8.922Zm0,0" transform="translate(0 0)"/></g></svg>