<svg xmlns="http://www.w3.org/2000/svg" width="50" height="42.969" viewBox="0 0 50 42.969"><defs><style>.a{fill:#a4cb45;}</style></defs><path class="a" d="M413.953,360a1.953,1.953,0,1,0,1.953,1.953A1.952,1.952,0,0,0,413.953,360Zm0,0" transform="translate(-371.766 -324.844)"/><path class="a" d="M412.977,280a.977.977,0,1,0,.977.977A.977.977,0,0,0,412.977,280Zm0,0" transform="translate(-371.766 -252.656)"/><path class="a" d="M107.953,360a1.953,1.953,0,1,0,1.953,1.953A1.952,1.952,0,0,0,107.953,360Zm0,0" transform="translate(-95.648 -324.844)"/><path class="a" d="M45.9,23.5l-1.684-6.735a2.929,2.929,0,0,0-2.024-5.046H35.351a2.933,2.933,0,0,0-2.93,2.93V27.511a2.916,2.916,0,0,0-.977-.168h-2.93V15.625h.977a.976.976,0,0,0,.977-.977V8.789a.976.976,0,0,0-.977-.977H25a4.882,4.882,0,1,0-8.689-3.9.925.925,0,0,0-.1-.006c-.033,0-.065,0-.1,0a4.883,4.883,0,1,0-8.689,3.9H2.93a.976.976,0,0,0-.977.977v5.859a.976.976,0,0,0,.977.977h.977V27.344H2.93A2.933,2.933,0,0,0,0,30.273V34.18a2.933,2.933,0,0,0,2.93,2.93H6.445a5.859,5.859,0,0,0,11.719,0H36.328a5.859,5.859,0,0,0,11.719,0c0-.056,0-.111,0-.167A2.934,2.934,0,0,0,50,34.18V28.32A4.89,4.89,0,0,0,45.9,23.5ZM42.4,17.578l1.465,5.859h-8.11L37.995,21.2a.976.976,0,0,0-1.381-1.381l-2.239,2.239V17.578Zm-7.05-3.906h6.836a.977.977,0,1,1,0,1.953H34.375v-.977A.977.977,0,0,1,35.351,13.672ZM26.562,27.344H21.094V15.625h5.469ZM13.281,15.625h5.859V27.344H13.281ZM16.154,5.86,17,5.967a2.94,2.94,0,0,1,1.974,1.846H13.451A2.932,2.932,0,0,1,16.154,5.86Zm2.987,3.906v3.906H13.281V9.766Zm9.375,3.906H21.094V9.766h7.422ZM21.094,1.953a2.93,2.93,0,1,1,0,5.859c-.034,0-.066,0-.1,0a4.872,4.872,0,0,0-2.778-3.471A2.934,2.934,0,0,1,21.094,1.953ZM8.4,4.883a2.929,2.929,0,0,1,5.808-.545A4.921,4.921,0,0,0,11.43,7.809c-.034,0-.068,0-.1,0A2.933,2.933,0,0,1,8.4,4.883ZM3.906,9.766h7.422v3.906H3.906Zm7.422,5.859V27.344H5.859V15.625ZM12.3,41.015a3.906,3.906,0,1,1,3.906-3.906A3.911,3.911,0,0,1,12.3,41.015Zm5.524-5.859a5.859,5.859,0,0,0-11.048,0H2.93a.977.977,0,0,1-.977-.977V30.273A.977.977,0,0,1,2.93,29.3H31.445a.977.977,0,0,1,.977.977v4.883Zm24.359,5.859a3.906,3.906,0,1,1,3.906-3.906A3.911,3.911,0,0,1,42.187,41.015Zm5.455-6.046a5.859,5.859,0,0,0-10.979.187H34.375V25.391H45.117a2.934,2.934,0,0,1,2.762,1.953H45.117a.977.977,0,0,0,0,1.953h2.93V34.18A.976.976,0,0,1,47.642,34.97Zm0,0"/></svg>