<svg xmlns="http://www.w3.org/2000/svg" width="42.281" height="39.639" viewBox="0 0 42.281 39.639"><defs><style>.a{fill:#a4cb45;}</style></defs><path class="a" d="M246.826,340a.826.826,0,1,0,.826.826A.826.826,0,0,0,246.826,340Zm0,0" transform="translate(-225.685 -311.923)"/><path class="a" d="M39.8,14.864H36.831V2.477A2.48,2.48,0,0,0,34.353,0H2.477A2.48,2.48,0,0,0,0,2.477V22.3a2.48,2.48,0,0,0,2.477,2.477H5.45V37.161a2.48,2.48,0,0,0,2.477,2.477H39.8a2.48,2.48,0,0,0,2.477-2.477V17.342A2.48,2.48,0,0,0,39.8,14.864ZM1.652,6.606H35.179v3.3H1.652Zm.826-4.955H34.353a.827.827,0,0,1,.826.826V4.955H1.652V2.477A.827.827,0,0,1,2.477,1.652Zm0,21.471a.827.827,0,0,1-.826-.826V11.561H35.179v3.3H7.928A2.48,2.48,0,0,0,5.45,17.342v5.781ZM40.629,37.161a.827.827,0,0,1-.826.826H7.928a.827.827,0,0,1-.826-.826V17.342a.827.827,0,0,1,.826-.826H39.8a.827.827,0,0,1,.826.826Zm0,0"/><path class="a" d="M295.084,240a4.131,4.131,0,0,0-2.478.827,4.129,4.129,0,1,0,0,6.6A4.129,4.129,0,1,0,295.084,240Zm-7.432,4.129a2.477,2.477,0,0,1,4.334-1.638h0a2.477,2.477,0,1,1-4.335,1.637Zm7.432,2.477a2.48,2.48,0,0,1-1.377-.419,4.12,4.12,0,0,0,0-4.117,2.477,2.477,0,1,1,1.377,4.536Zm0,0" transform="translate(-262.382 -220.181)"/><path class="a" d="M130.129,400h-3.3a.826.826,0,0,0,0,1.652h3.3a.826.826,0,1,0,0-1.652Zm0,0" transform="translate(-115.595 -366.968)"/><path class="a" d="M210.129,400h-3.3a.826.826,0,0,0,0,1.652h3.3a.826.826,0,0,0,0-1.652Zm0,0" transform="translate(-188.988 -366.968)"/><path class="a" d="M290.129,400h-3.3a.826.826,0,0,0,0,1.652h3.3a.826.826,0,0,0,0-1.652Zm0,0" transform="translate(-262.382 -366.968)"/><path class="a" d="M370.129,400h-3.3a.826.826,0,1,0,0,1.652h3.3a.826.826,0,0,0,0-1.652Zm0,0" transform="translate(-335.776 -366.968)"/><path class="a" d="M126.826,341.652h6.606a.826.826,0,0,0,0-1.652h-6.606a.826.826,0,0,0,0,1.652Zm0,0" transform="translate(-115.595 -311.923)"/></svg>