<svg xmlns="http://www.w3.org/2000/svg" width="120" height="105.494" viewBox="0 0 120 105.494"><defs><style>.a{fill:#fef0c2;}</style></defs><g transform="translate(0 -30.946)"><g transform="translate(30.703 31.691)"><g transform="translate(0 0)"><path class="a" d="M160.3,34.123a29.3,29.3,0,1,0,29.3,29.3A29.33,29.33,0,0,0,160.3,34.123Zm10.547,45.7h-18.75V72.795h5.859V54.045h-5.859V47.014h12.891V72.795h5.859Z" transform="translate(-131 -34.123)"/></g></g><g transform="translate(36.563 104.799)"><path class="a" d="M183.159,353.58a4.688,4.688,0,1,0-7.442,0A19.95,19.95,0,0,1,156,370.663v7.031a26.97,26.97,0,0,0,23.438-13.656,26.97,26.97,0,0,0,23.438,13.656v-7.031A19.95,19.95,0,0,1,183.159,353.58Z" transform="translate(-156 -346.054)"/></g><g transform="translate(64.705 95.422)"><path class="a" d="M283.009,306.042c-3.853.443-7.955,5.965-6.7,12.145C282.481,318.187,285.747,312.373,283.009,306.042Z" transform="translate(-276.076 -306.042)"/></g><g transform="translate(65.177 109.759)"><path class="a" d="M278.089,367.491c0,6.367,5.962,10.966,13.833,7.8C291.551,372.335,286.864,365.8,278.089,367.491Z" transform="translate(-278.089 -367.216)"/></g><g transform="translate(77.02 90.611)"><path class="a" d="M332.787,285.517c-4.521,2.314-5.185,9.364-2.852,13.571C335.378,297.616,337.465,290.76,332.787,285.517Z" transform="translate(-328.619 -285.517)"/></g><g transform="translate(79.291 104.838)"><path class="a" d="M338.31,347.851c1.633,5.44,7.9,8.6,15.513,3.409C352.267,347.92,345.939,343.916,338.31,347.851Z" transform="translate(-338.31 -346.22)"/></g><g transform="translate(86.728 83.201)"><path class="a" d="M372.252,253.9c-4.573,4.723-.984,12,1.224,13.827C379.09,264.133,377.46,257.121,372.252,253.9Z" transform="translate(-370.041 -253.902)"/></g><g transform="translate(91.747 95.037)"><path class="a" d="M391.452,308.3c3.2,5.245,11.541,5.57,15.822-1.257C402.72,302.718,395.454,304.105,391.452,308.3Z" transform="translate(-391.452 -304.401)"/></g><g transform="translate(93.327 73.877)"><g transform="translate(0 0)"><path class="a" d="M399.053,214.117c-2.265,3.638.118,10.591,5.2,12.852C408.273,221.817,405.128,215.684,399.053,214.117Z" transform="translate(-398.195 -214.117)"/></g></g><g transform="translate(101.456 81.211)"><path class="a" d="M432.88,252.293c3.921,3.522,11.812,3.092,14.779-5.824C441.293,243,434.223,248.861,432.88,252.293Z" transform="translate(-432.88 -245.409)"/></g><g transform="translate(96.31 63.416)"><path class="a" d="M411.072,169.5c-.788,2.737,1.5,9.377,8.759,10.767C422.452,173.347,416.3,169.207,411.072,169.5Z" transform="translate(-410.924 -169.483)"/></g><g transform="translate(107.596 64.838)"><path class="a" d="M459.077,185.61c3.973,2.092,12.408-.057,12.4-9.9C465.667,174.616,459.944,179.521,459.077,185.61Z" transform="translate(-459.077 -175.553)"/></g><g transform="translate(95.61 52.13)"><path class="a" d="M407.934,121.937c.652,6.038,7.947,8.4,11.49,7.764C419.88,123.165,414.2,119.889,407.934,121.937Z" transform="translate(-407.934 -121.331)"/></g><g transform="translate(109.491 47.394)"><path class="a" d="M476.261,101.123c-6.582.687-9.673,7.865-9.012,13.081C475.313,115.033,478.224,106.869,476.261,101.123Z" transform="translate(-467.161 -101.123)"/></g><g transform="translate(91.668 40.682)"><path class="a" d="M391.116,74.608c1.737,4.163,7.977,6.3,13.267,4.042C403.9,74.758,398.331,69.484,391.116,74.608Z" transform="translate(-391.116 -72.486)"/></g><g transform="translate(106.183 30.946)"><g transform="translate(0 0)"><path class="a" d="M458.93,30.946c-6.8,2.9-6.649,11.8-4.767,15.152C462.272,44.222,462.418,36.128,458.93,30.946Z" transform="translate(-453.048 -30.946)"/></g></g><g transform="translate(47.385 95.422)"><path class="a" d="M203.153,306.042c-2.738,6.331.528,12.145,6.7,12.145C211.108,312.007,207.007,306.484,203.153,306.042Z" transform="translate(-202.176 -306.042)"/></g><g transform="translate(40.99 109.759)"><path class="a" d="M174.889,375.291c7.871,3.167,13.833-1.433,13.833-7.8C179.948,365.8,175.26,372.335,174.889,375.291Z" transform="translate(-174.889 -367.216)"/></g><g transform="translate(36.223 90.611)"><path class="a" d="M157.141,285.517c-4.678,5.243-2.591,12.1,2.852,13.571C162.326,294.881,161.662,287.831,157.141,285.517Z" transform="translate(-154.551 -285.517)"/></g><g transform="translate(25.195 104.838)"><path class="a" d="M107.5,351.26c7.611,5.195,13.88,2.031,15.513-3.409C115.384,343.916,109.056,347.92,107.5,351.26Z" transform="translate(-107.5 -346.22)"/></g><g transform="translate(26.321 83.201)"><path class="a" d="M117.041,253.9c-5.207,3.219-6.838,10.231-1.224,13.827C118.025,265.906,121.614,258.625,117.041,253.9Z" transform="translate(-112.302 -253.902)"/></g><g transform="translate(12.431 95.037)"><path class="a" d="M53.039,307.043c4.282,6.827,12.621,6.5,15.822,1.257C64.859,304.105,57.594,302.718,53.039,307.043Z" transform="translate(-53.039 -304.401)"/></g><g transform="translate(18.815 73.877)"><g transform="translate(0 0)"><path class="a" d="M87.278,214.117c-6.075,1.567-9.219,7.7-5.2,12.852C87.16,224.708,89.543,217.755,87.278,214.117Z" transform="translate(-80.279 -214.117)"/></g></g><g transform="translate(3.764 81.211)"><path class="a" d="M16.061,246.469c2.968,8.916,10.858,9.345,14.779,5.824C29.5,248.861,22.427,243,16.061,246.469Z" transform="translate(-16.061 -245.409)"/></g><g transform="translate(14.158 63.416)"><path class="a" d="M69.793,169.5c-5.228-.29-11.38,3.85-8.759,10.767C68.3,178.875,70.58,172.234,69.793,169.5Z" transform="translate(-60.409 -169.483)"/></g><g transform="translate(0 64.838)"><path class="a" d="M0,175.705c0,9.848,8.431,12,12.4,9.9C11.537,179.521,5.814,174.616,0,175.705Z" transform="translate(0 -175.553)"/></g><g transform="translate(12.875 52.13)"><g transform="translate(0 0)"><path class="a" d="M54.96,129.7c3.543.632,10.838-1.726,11.49-7.764C60.188,119.889,54.5,123.165,54.96,129.7Z" transform="translate(-54.934 -121.331)"/></g></g><g transform="translate(0.819 47.394)"><path class="a" d="M4.085,101.123c-1.963,5.746.947,13.91,9.012,13.081C13.758,108.988,10.667,101.81,4.085,101.123Z" transform="translate(-3.495 -101.123)"/></g><g transform="translate(15.066 40.682)"><g transform="translate(0 0)"><path class="a" d="M64.28,78.651c5.289,2.26,11.53.121,13.267-4.042C70.331,69.484,64.765,74.758,64.28,78.651Z" transform="translate(-64.28 -72.486)"/></g></g><g transform="translate(5.769 30.946)"><g transform="translate(0 0)"><path class="a" d="M26.78,30.946c-3.488,5.182-3.342,13.276,4.767,15.152C33.429,42.749,33.575,33.843,26.78,30.946Z" transform="translate(-24.614 -30.946)"/></g></g></g></svg>