<svg xmlns="http://www.w3.org/2000/svg" width="17.972" height="22.666" viewBox="0 0 17.972 22.666"><defs><style>.a{fill:#fff;}</style></defs><g transform="translate(0)"><g transform="translate(0)"><path class="a" d="M70.981,18.692,69.969,5.937a1.594,1.594,0,0,0-1.582-1.465h-2v-.09a4.381,4.381,0,0,0-8.763,0v.09h-2a1.594,1.594,0,0,0-1.582,1.464L53.031,18.693a3.691,3.691,0,0,0,3.68,3.973H67.3a3.691,3.691,0,0,0,3.68-3.975ZM58.952,4.381a3.054,3.054,0,1,1,6.107,0v.09H58.952Zm10.083,16.2a2.339,2.339,0,0,1-1.734.757H56.711A2.363,2.363,0,0,1,54.355,18.8L55.367,6.038a.26.26,0,0,1,.258-.239h2V7.434a.664.664,0,0,0,1.328,0V5.8H65.06V7.434a.664.664,0,0,0,1.328,0V5.8h2a.261.261,0,0,1,.259.241l1.012,12.755A2.339,2.339,0,0,1,69.035,20.581Z" transform="translate(-53.02)"/></g></g><g transform="translate(5.801 11.063)"><g transform="translate(0)"><path class="a" d="M190.228,250.087a.664.664,0,0,0-.939,0l-2.964,2.964-1.14-1.14a.664.664,0,0,0-.939.939l1.609,1.609a.664.664,0,0,0,.939,0l3.434-3.434A.664.664,0,0,0,190.228,250.087Z" transform="translate(-184.052 -249.893)"/></g></g></svg>