<svg xmlns="http://www.w3.org/2000/svg" width="98.308" height="109.708" viewBox="0 0 98.308 109.708"><defs><style>.a{fill:#abe7fc;}</style></defs><path class="a" d="M1.6,60.7c.437-1.18.306-.675,1.124-1.643,1.43-5.783,1.137-12.4,5.246-18.967,6.6-10.53,24.07-27.517,30.69-30.134a7.413,7.413,0,0,1,.912-.269,5.314,5.314,0,0,1,3.341-4.2C49.695,2.3,57.545-1.305,61.861.468c2.461,1.018,4.409-1,5.2,1.374.5,1.493,3.2,4.341,2.623,7.6-.162.931-1.955,5.14-3.991,6.339-.337.962,2.586-.681.868,2.917s-16.975-2.748-20.073,1.074c-3.4,5.078-4.035,21.947-10.28,32.726,1.074-.137,7.451-9.618,18.505-6.951a19.551,19.551,0,0,1,13.99,12.1c10.611-9.893,28.123-3.048,30.515,6.539l-.069,45.517-10.786-.187-4.078-7.232c-7.1-2.729-12.685-14.439-18.512-21.922-7.9,1.155-19.96-1.018-24.688-1.605-4.322-.537-20.785-5.215-25.481-6.939C4.659,67.819-1.175,68.275,1.6,60.7Z" transform="translate(-0.913 0)"/></svg>