<svg xmlns="http://www.w3.org/2000/svg" width="125.268" height="121.101" viewBox="0 0 125.268 121.101"><defs><style>.a{fill:#a7e9c4;}</style></defs><g transform="translate(0 -0.996)"><path class="a" d="M123.181,96.683H78.355a12.466,12.466,0,0,1-3.194-8.351V69.354A45.8,45.8,0,0,0,72.572,54.2a4.176,4.176,0,0,1,3.946-5.533H85.6A12.527,12.527,0,0,0,98.127,36.137V29.644a9.994,9.994,0,0,1-2.088.23,11.416,11.416,0,0,1-2.088-.209v4.384A10.439,10.439,0,0,1,83.512,44.488h-13.4a4.253,4.253,0,0,1-3.4-1.754c-.376-.543-.772-1.086-.9-1.253,0-.021-.021-.021-.021-.042a4.159,4.159,0,0,1-.647-4.009l6.138-16.89a.159.159,0,0,1-.084-.021,8.272,8.272,0,0,1-5.407,2.965l-2.255,6.18a4.159,4.159,0,0,1-3.09,2.652,3.842,3.842,0,0,1-.856.084,4.14,4.14,0,0,1-3.006-1.294c-1.065-1.107-2.067-2.171-3.006-3.132a11.554,11.554,0,0,1-5.721,3.549c.564.71,1.148,1.4,1.691,2.109a4.2,4.2,0,0,1,.376,4.384,4.157,4.157,0,0,1-3.737,2.3H33.113a4.157,4.157,0,0,1-3.737-2.3l-2.109-4.2a11.053,11.053,0,0,1-2.213.23,10.08,10.08,0,0,1-2.505-.355L26.2,41.022a6.263,6.263,0,0,0,5.616,3.466H53.573a4.176,4.176,0,0,1,3.821,2.464,56.068,56.068,0,0,1,5.24,22.59,67.346,67.346,0,0,1-7.1,27.141H2.088a2.088,2.088,0,1,0,0,4.176H123.181a2.088,2.088,0,1,0,0-4.176Z" transform="translate(0 21.238)"/><path class="a" d="M51.036,16.513a2.088,2.088,0,0,1-1.169,1.232,2.161,2.161,0,0,1-1.712-.063,4.119,4.119,0,0,0-1.8-.418,4.176,4.176,0,0,0-3.883,5.7,2.121,2.121,0,0,1-.042,1.712A2.2,2.2,0,0,1,41.1,25.783a4.176,4.176,0,1,0,4.447,6.493,2.052,2.052,0,0,1,1.691-.877H47.4a2.115,2.115,0,0,1,1.712,1.169A6.228,6.228,0,0,0,59.7,33.55a2.117,2.117,0,0,1,2.965-.438,4.1,4.1,0,0,0,2.484.856,4.188,4.188,0,0,0,4.176-4.176A2.088,2.088,0,0,1,71.413,27.7a4.176,4.176,0,1,0,0-8.351,3.789,3.789,0,0,0-1.461.271,2.1,2.1,0,0,1-2.839-1.608,8.337,8.337,0,0,0-16.076-1.5Zm11.775,1.4a2.109,2.109,0,0,1-1.253,2.672,2.075,2.075,0,0,1-2.672-1.253,2.088,2.088,0,0,1-2.046,1.754,1.863,1.863,0,0,1-.334-.021,2.088,2.088,0,0,1-1.733-2.4,4.176,4.176,0,0,1,8.038-.752Z" transform="translate(41.329 10.88)"/><path class="a" d="M6.176,29.7a2.088,2.088,0,0,1,2.088,2.088,4.188,4.188,0,0,0,4.176,4.176,4.115,4.115,0,0,0,2.484-.856,2.088,2.088,0,0,1,1.274-.418,1.284,1.284,0,0,1,.292.021,2.088,2.088,0,0,1,1.4.835,6.19,6.19,0,0,0,4.99,2.505,6.305,6.305,0,0,0,2.338-.459.077.077,0,0,1,.063-.021,6.138,6.138,0,0,0,3.194-3.006A2.115,2.115,0,0,1,30.185,33.4a2.046,2.046,0,0,1,1.858.877A4.115,4.115,0,0,0,35.4,35.967a4.255,4.255,0,0,0,2.965-1.232,4.159,4.159,0,0,0-1.879-6.952,2.2,2.2,0,0,1-1.336-1.107,2.121,2.121,0,0,1-.042-1.712,4.176,4.176,0,0,0-3.883-5.7,4.119,4.119,0,0,0-1.8.418,2.161,2.161,0,0,1-1.712.063,2.021,2.021,0,0,1-1.169-1.232,8.337,8.337,0,0,0-16.076,1.5,2.1,2.1,0,0,1-2.839,1.608,3.789,3.789,0,0,0-1.461-.271,4.176,4.176,0,1,0,0,8.351ZM18.7,17.177a4.2,4.2,0,0,1,3.925,2.735,2.109,2.109,0,0,1-1.253,2.672A2.075,2.075,0,0,1,18.7,21.332a2.088,2.088,0,0,1-2.046,1.754,1.862,1.862,0,0,1-.334-.021,2.088,2.088,0,0,1-1.733-2.4A4.19,4.19,0,0,1,18.7,17.177Z" transform="translate(2.176 13.056)"/><path class="a" d="M17.088,28.145A8.351,8.351,0,0,1,25.439,36.5a6.34,6.34,0,0,1-.084,1.086A8.251,8.251,0,0,1,28.466,49a.9.9,0,0,0,.1.021,7.307,7.307,0,0,0,7.266-6.7,2.113,2.113,0,0,1,1.608-1.858,6.09,6.09,0,0,0,3.57-2.484,2.088,2.088,0,0,1,3.633.292,4.155,4.155,0,0,0,7.662-.313,2.1,2.1,0,0,1,3.508-.71,4.113,4.113,0,0,0,3.027,1.336c.1,0,.188-.042.292-.042A8.316,8.316,0,0,1,63.1,33.407a6.342,6.342,0,0,1-.084-1.086,8.351,8.351,0,0,1,8.351-8.351,8.015,8.015,0,0,1,1.587.146,12.579,12.579,0,0,1,10.94-6.41,4.188,4.188,0,0,0-4.176-4.176,4.119,4.119,0,0,0-1.8.418,2.088,2.088,0,0,1-2.8-2.8,4.119,4.119,0,0,0,.418-1.8A4.188,4.188,0,0,0,71.371,5.18a4.251,4.251,0,0,0-1.9.459,2.2,2.2,0,0,1-1.649.1,2.05,2.05,0,0,1-1.211-1.086,6.23,6.23,0,0,0-10.773-1,2.13,2.13,0,0,1-1.608.877,2.059,2.059,0,0,1-1.67-.71A8.351,8.351,0,0,0,38.4,6.62a2.069,2.069,0,0,1-1.127,1.211,2.027,2.027,0,0,1-1.649.021,7.182,7.182,0,0,0-2.881-.585,7.307,7.307,0,0,0-7.307,7.307c0,.292.021.585.042.856a2.071,2.071,0,0,1-.585,1.733,2.167,2.167,0,0,1-1.733.585c-.271-.027-.564-.042-.856-.042a7.3,7.3,0,0,0-6.535,10.564,9.345,9.345,0,0,1,1.315-.125ZM31.243,12.8a2.088,2.088,0,0,1,2.735-1.107A6.284,6.284,0,0,0,42.35,8,2.09,2.09,0,0,1,46.3,9.376,10.456,10.456,0,0,1,32.35,15.535,2.088,2.088,0,0,1,31.243,12.8Z" transform="translate(16.317 0)"/></g></svg>